<svg width="76" height="45" viewBox="0 0 76 45" fill="none" xmlns="http://www.w3.org/2000/svg">
<path d="M17.529 1.01135C17.8472 1.63842 18.0125 2.33304 18.0111 3.03749V37.4819C17.9954 38.7022 17.508 39.8681 16.6526 40.7311C15.7971 41.594 14.6414 42.0858 13.4318 42.1015H2.3251C1.62738 42.098 0.939943 41.9316 0.31665 41.6153C0.690815 42.3887 1.27172 43.0414 1.99388 43.4996C2.71603 43.9578 3.55072 44.2034 4.40384 44.2087H15.5306C16.7403 44.193 17.896 43.7012 18.7514 42.8383C19.6068 41.9753 20.0943 40.8094 20.1099 39.5891V5.14468C20.1068 4.28099 19.8632 3.43556 19.4068 2.70476C18.9505 1.97396 18.2999 1.38719 17.529 1.01135ZM38.2963 16.4404H40.3851V8.01168H43.679V5.89435H38.2963V16.4404ZM50.5981 25.5581C51.3763 25.1955 52.0351 24.6152 52.4961 23.8861C52.9572 23.157 53.2011 22.3098 53.199 21.445V5.13455C53.1997 4.26741 52.9578 3.41768 52.5013 2.68295C52.0448 1.94822 51.3921 1.3583 50.6182 0.980957C50.9317 1.60974 51.0967 2.30324 51.1002 3.0071V19.3682C51.1072 20.2328 50.8677 21.0812 50.4101 21.8122C49.9525 22.5433 49.2962 23.1262 48.5193 23.4914L51.6123 42.0813H45.9084L46.2598 44.1885H53.681L50.5981 25.5581ZM41.1383 23.8865H38.2963V42.0813H32.9639V44.1986H40.3851V26.0849H41.4898L41.1383 23.8865ZM70.4516 34.4934H72.5504V8.01168H75.8342V5.89435H70.4516V34.4934Z" fill="#636466"/>
</svg>
