<svg width="108" height="45" viewBox="0 0 108 45" fill="none" xmlns="http://www.w3.org/2000/svg">
<path d="M17.9931 1.01142C18.3112 1.63849 18.4765 2.33311 18.4751 3.03756V37.482C18.4595 38.7023 17.972 39.8682 17.1166 40.7311C16.2612 41.5941 15.1055 42.0859 13.8958 42.1016H0.278564V44.2088H15.9846C17.1942 44.1931 18.3499 43.7013 19.2054 42.8383C20.0608 41.9754 20.5482 40.8095 20.5639 39.5892V5.14476C20.5605 4.2824 20.3179 3.43821 19.8636 2.70773C19.4092 1.97725 18.7613 1.38964 17.9931 1.01142ZM39.1319 0.525146V42.0611H33.7995V44.1784H41.2207V0.525146H39.1319ZM72.1508 0.525146V42.0611H66.2259L66.8184 44.1784H74.2496V0.525146H72.1508ZM59.2867 23.0457V42.0814H53.9543V44.1987H61.3755V30.3297L59.2867 23.0457ZM91.6929 26.0849H97.8288V23.9271H89.6042C88.9064 23.9236 88.219 23.7572 87.5957 23.4408C87.9606 24.2275 88.5394 24.8936 89.2646 25.3617C89.9899 25.8297 90.832 26.0805 91.6929 26.0849ZM94.5349 28.8506L92.4361 29.3369V34.534H94.5349V28.8506ZM104.828 1.01142C105.146 1.63849 105.312 2.33311 105.31 3.03756V11.9019L99.9175 13.1582V15.7516L107.399 13.999V5.13462C107.394 4.27399 107.15 3.43195 106.696 2.70343C106.242 1.97491 105.595 1.38888 104.828 1.01142Z" fill="#636466"/>
</svg>
