<svg width="44" height="44" viewBox="0 0 44 44" fill="none" xmlns="http://www.w3.org/2000/svg">
<path d="M17.8436 0.0114746C18.1629 0.638136 18.3282 1.33303 18.3256 2.03762V36.4821C18.31 37.7024 17.8226 38.8682 16.9671 39.7312C16.1117 40.5942 14.956 41.0859 13.7464 41.1017H2.59951C1.90179 41.0982 1.21436 40.9317 0.591064 40.6154C0.965229 41.3889 1.54614 42.0415 2.2683 42.4997C2.99045 42.958 3.82514 43.2036 4.67826 43.2089H15.8151C17.0247 43.1931 18.1804 42.7013 19.0358 41.8384C19.8913 40.9754 20.3787 39.8096 20.3943 38.5893V4.14481C20.394 3.28434 20.1549 2.44115 19.7041 1.71068C19.2533 0.980198 18.6088 0.391593 17.8436 0.0114746ZM38.6009 33.534H40.6997V7.01181H43.9835V4.89448H38.6009V33.534Z" fill="#636466"/>
</svg>
