<svg width="74" height="45" viewBox="0 0 74 45" fill="none" xmlns="http://www.w3.org/2000/svg">
<path d="M17.8282 19.0441C18.1464 19.6712 18.3117 20.3658 18.3102 21.0702V37.482C18.2946 38.7023 17.8072 39.8682 16.9518 40.7311C16.0963 41.5941 14.9406 42.0859 13.731 42.1016H2.59414C1.89642 42.0981 1.20899 41.9317 0.585693 41.6153C0.959858 42.3888 1.54079 43.0414 2.26294 43.4997C2.9851 43.9579 3.81977 44.2035 4.67289 44.2088H15.7997C17.0093 44.1931 18.165 43.7013 19.0204 42.8383C19.8759 41.9754 20.3633 40.8095 20.3789 39.5892V23.1673C20.3767 22.3086 20.1367 21.4675 19.686 20.739C19.2353 20.0105 18.5919 19.4235 17.8282 19.0441ZM5.43611 5.87417V16.4405H7.53493V8.01175H10.8187V5.89443L5.43611 5.87417ZM39.2583 23.9271H38.5755V42.0814H33.233V44.1987H40.6542V28.4657L39.2583 23.9271ZM54.4623 0.525146H51.7107L45.4544 20.1889L52.3835 42.0814H46.3582L46.9406 43.9454L47.0009 44.1987H54.4823L47.5532 22.2961L54.4823 0.525146H54.4623ZM71.9156 0.525146V42.0611H66.5933V44.1784H74.0044V0.525146H71.9156Z" fill="#636466"/>
</svg>
